<svg width="14" height="12" viewBox="0 0 14 12" fill="none" xmlns="http://www.w3.org/2000/svg">
<path d="M4.5 11.5C4.77614 11.5 5 11.2761 5 11C5 10.7239 4.77614 10.5 4.5 10.5C4.22386 10.5 4 10.7239 4 11C4 11.2761 4.22386 11.5 4.5 11.5Z" stroke="#333333" stroke-linecap="round" stroke-linejoin="round"/>
<path d="M11.5 11.5C11.7761 11.5 12 11.2761 12 11C12 10.7239 11.7761 10.5 11.5 10.5C11.2239 10.5 11 10.7239 11 11C11 11.2761 11.2239 11.5 11.5 11.5Z" stroke="#333333" stroke-linecap="round" stroke-linejoin="round"/>
<path d="M0.5 0.5H2.5L4 9H12" stroke="#333333" stroke-linecap="round" stroke-linejoin="round"/>
<path d="M4 7H11.795C11.8528 7.00004 11.9089 6.98004 11.9536 6.9434C11.9983 6.90676 12.029 6.85576 12.0403 6.79906L12.9403 2.29906C12.9476 2.26278 12.9467 2.22533 12.9377 2.18943C12.9288 2.15352 12.9119 2.12006 12.8885 2.09145C12.865 2.06284 12.8355 2.03979 12.802 2.02398C12.7686 2.00816 12.732 1.99997 12.695 2H3" stroke="#333333" stroke-linecap="round" stroke-linejoin="round"/>
</svg>
