<svg width="94" height="22" viewBox="0 0 94 22" fill="none" xmlns="http://www.w3.org/2000/svg">
<path d="M88.125 18.825C88.125 18.495 88.185 18.185 88.305 17.895C88.435 17.595 88.61 17.34 88.83 17.13C89.05 16.91 89.305 16.74 89.595 16.62C89.895 16.49 90.22 16.425 90.57 16.425C90.91 16.425 91.23 16.49 91.53 16.62C91.83 16.74 92.09 16.91 92.31 17.13C92.53 17.34 92.7 17.595 92.82 17.895C92.95 18.185 93.015 18.495 93.015 18.825C93.015 19.165 92.95 19.48 92.82 19.77C92.7 20.06 92.53 20.315 92.31 20.535C92.09 20.745 91.83 20.91 91.53 21.03C91.23 21.15 90.91 21.21 90.57 21.21C90.22 21.21 89.895 21.15 89.595 21.03C89.305 20.91 89.05 20.745 88.83 20.535C88.61 20.315 88.435 20.06 88.305 19.77C88.185 19.48 88.125 19.165 88.125 18.825Z" fill="#C12A2A"/>
<path d="M11.52 11.445C11.52 11.015 11.46 10.605 11.34 10.215C11.23 9.82498 11.05 9.47998 10.8 9.17998C10.55 8.87998 10.235 8.64498 9.85501 8.47498C9.47501 8.29498 9.02001 8.20498 8.49001 8.20498C7.50001 8.20498 6.72501 8.48498 6.16501 9.04498C5.60501 9.60498 5.24001 10.405 5.07001 11.445H11.52ZM5.01001 13.905C5.14001 15.355 5.55001 16.415 6.24001 17.085C6.94001 17.755 7.85001 18.09 8.97001 18.09C9.54001 18.09 10.03 18.025 10.44 17.895C10.86 17.755 11.225 17.605 11.535 17.445C11.855 17.275 12.14 17.125 12.39 16.995C12.65 16.855 12.905 16.785 13.155 16.785C13.475 16.785 13.725 16.905 13.905 17.145L15.105 18.645C14.665 19.155 14.18 19.58 13.65 19.92C13.12 20.25 12.57 20.515 12 20.715C11.43 20.905 10.855 21.035 10.275 21.105C9.69501 21.185 9.13501 21.225 8.59501 21.225C7.51501 21.225 6.50501 21.05 5.56501 20.7C4.63501 20.34 3.82001 19.815 3.12001 19.125C2.43001 18.425 1.88501 17.56 1.48501 16.53C1.08501 15.5 0.88501 14.305 0.88501 12.945C0.88501 11.895 1.05501 10.905 1.39501 9.97498C1.74501 9.04498 2.24501 8.23498 2.89501 7.54498C3.54501 6.85498 4.33501 6.30998 5.26501 5.90998C6.19501 5.49998 7.24501 5.29498 8.41501 5.29498C9.40501 5.29498 10.315 5.45498 11.145 5.77498C11.985 6.08498 12.705 6.53998 13.305 7.13998C13.915 7.73998 14.385 8.47998 14.715 9.35998C15.055 10.23 15.225 11.225 15.225 12.345C15.225 12.655 15.21 12.91 15.18 13.11C15.15 13.31 15.1 13.47 15.03 13.59C14.96 13.71 14.865 13.795 14.745 13.845C14.625 13.885 14.47 13.905 14.28 13.905H5.01001Z" fill="black"/>
<path d="M31.6188 5.53498L25.5438 21H21.7938L15.7188 5.53498H19.1538C19.4538 5.53498 19.7038 5.60498 19.9038 5.74498C20.1038 5.88498 20.2438 6.06498 20.3238 6.28498L22.9188 13.935C23.0888 14.455 23.2388 14.965 23.3688 15.465C23.4988 15.955 23.6138 16.45 23.7138 16.95C23.8238 16.45 23.9438 15.955 24.0738 15.465C24.2138 14.965 24.3738 14.455 24.5538 13.935L27.2388 6.28498C27.3088 6.06498 27.4438 5.88498 27.6438 5.74498C27.8438 5.60498 28.0788 5.53498 28.3488 5.53498H31.6188Z" fill="black"/>
<path d="M42.6919 11.445C42.6919 11.015 42.6319 10.605 42.5119 10.215C42.4019 9.82498 42.2219 9.47998 41.9719 9.17998C41.7219 8.87998 41.4069 8.64498 41.0269 8.47498C40.6469 8.29498 40.1919 8.20498 39.6619 8.20498C38.6719 8.20498 37.8969 8.48498 37.3369 9.04498C36.7769 9.60498 36.4119 10.405 36.2419 11.445H42.6919ZM36.1819 13.905C36.3119 15.355 36.7219 16.415 37.4119 17.085C38.1119 17.755 39.0219 18.09 40.1419 18.09C40.7119 18.09 41.2019 18.025 41.6119 17.895C42.0319 17.755 42.3969 17.605 42.7069 17.445C43.0269 17.275 43.3119 17.125 43.5619 16.995C43.8219 16.855 44.0769 16.785 44.3269 16.785C44.6469 16.785 44.8969 16.905 45.0769 17.145L46.2769 18.645C45.8369 19.155 45.3519 19.58 44.8219 19.92C44.2919 20.25 43.7419 20.515 43.1719 20.715C42.6019 20.905 42.0269 21.035 41.4469 21.105C40.8669 21.185 40.3069 21.225 39.7669 21.225C38.6869 21.225 37.6769 21.05 36.7369 20.7C35.8069 20.34 34.9919 19.815 34.2919 19.125C33.6019 18.425 33.0569 17.56 32.6569 16.53C32.2569 15.5 32.0569 14.305 32.0569 12.945C32.0569 11.895 32.2269 10.905 32.5669 9.97498C32.9169 9.04498 33.4169 8.23498 34.0669 7.54498C34.7169 6.85498 35.5069 6.30998 36.4369 5.90998C37.3669 5.49998 38.4169 5.29498 39.5869 5.29498C40.5769 5.29498 41.4869 5.45498 42.3169 5.77498C43.1569 6.08498 43.8769 6.53998 44.4769 7.13998C45.0869 7.73998 45.5569 8.47998 45.8869 9.35998C46.2269 10.23 46.3969 11.225 46.3969 12.345C46.3969 12.655 46.3819 12.91 46.3519 13.11C46.3219 13.31 46.2719 13.47 46.2019 13.59C46.1319 13.71 46.0369 13.795 45.9169 13.845C45.7969 13.885 45.6419 13.905 45.4519 13.905H36.1819Z" fill="black"/>
<path d="M52.8059 7.33498C53.1159 7.03498 53.4359 6.75998 53.7659 6.50998C54.1059 6.25998 54.4609 6.04498 54.8309 5.86498C55.2109 5.68498 55.6159 5.54498 56.0459 5.44498C56.4859 5.34498 56.9609 5.29498 57.4709 5.29498C58.3109 5.29498 59.0559 5.43998 59.7059 5.72998C60.3559 6.01998 60.9009 6.42498 61.3409 6.94498C61.7909 7.46498 62.1259 8.08498 62.3459 8.80498C62.5759 9.52498 62.6909 10.315 62.6909 11.175V21H58.5659V11.175C58.5659 10.315 58.3659 9.64998 57.9659 9.17998C57.5659 8.69998 56.9759 8.45998 56.1959 8.45998C55.6159 8.45998 55.0709 8.58498 54.5609 8.83498C54.0509 9.08498 53.5659 9.43498 53.1059 9.88498V21H48.9659V5.53498H51.5159C52.0359 5.53498 52.3809 5.77498 52.5509 6.25498L52.8059 7.33498Z" fill="black"/>
<path d="M71.1223 21.24C70.4223 21.24 69.8023 21.14 69.2623 20.94C68.7223 20.73 68.2673 20.435 67.8973 20.055C67.5273 19.675 67.2473 19.215 67.0573 18.675C66.8673 18.135 66.7723 17.525 66.7723 16.845V8.50498H65.3173C65.0973 8.50498 64.9073 8.43498 64.7473 8.29498C64.5973 8.15498 64.5223 7.94498 64.5223 7.66498V6.04498L66.9973 5.59498L67.8373 1.58998C67.9473 1.13998 68.2523 0.914978 68.7523 0.914978H70.9123V5.62498H74.9023V8.50498H70.9123V16.575C70.9123 17.005 71.0123 17.345 71.2123 17.595C71.4223 17.845 71.7173 17.97 72.0973 17.97C72.2973 17.97 72.4673 17.95 72.6073 17.91C72.7473 17.86 72.8673 17.81 72.9673 17.76C73.0673 17.7 73.1573 17.65 73.2373 17.61C73.3273 17.56 73.4173 17.535 73.5073 17.535C73.6273 17.535 73.7273 17.565 73.8073 17.625C73.8873 17.675 73.9673 17.765 74.0473 17.895L75.2923 19.875C74.7223 20.325 74.0773 20.665 73.3573 20.895C72.6373 21.125 71.8923 21.24 71.1223 21.24Z" fill="black"/>
<path d="M81.0052 8.08498C81.4952 7.20498 82.0602 6.50998 82.7002 5.99998C83.3402 5.48998 84.0902 5.23498 84.9502 5.23498C85.6502 5.23498 86.2202 5.39998 86.6602 5.72998L86.3902 8.78998C86.3402 8.98998 86.2602 9.12998 86.1502 9.20998C86.0502 9.27998 85.9102 9.31498 85.7302 9.31498C85.5702 9.31498 85.3402 9.29498 85.0402 9.25498C84.7402 9.20498 84.4602 9.17998 84.2002 9.17998C83.8202 9.17998 83.4802 9.23498 83.1802 9.34498C82.8902 9.45498 82.6302 9.60998 82.4002 9.80998C82.1702 10.01 81.9602 10.255 81.7702 10.545C81.5902 10.835 81.4202 11.165 81.2602 11.535V21H77.1202V5.53498H79.5652C79.9852 5.53498 80.2752 5.60998 80.4352 5.75998C80.5952 5.90998 80.7102 6.16998 80.7802 6.53998L81.0052 8.08498Z" fill="black"/>
</svg>
